<svg xmlns="http://www.w3.org/2000/svg" width="32" height="32" viewBox="0 0 32 32" fill="none">
  <path d="M15.2875 8.92499L17.7625 6.44999C18.8104 5.4949 20.186 4.98029 21.6035 5.01311C23.021 5.04592 24.3713 5.62364 25.3738 6.6262C26.3764 7.62877 26.9541 8.97908 26.9869 10.3965C27.0198 11.814 26.5051 13.1896 25.55 14.2375L22.0125 17.7625C21.5027 18.2742 20.8969 18.6803 20.2298 18.9573C19.5627 19.2344 18.8474 19.377 18.125 19.377C17.4027 19.377 16.6874 19.2344 16.0203 18.9573C15.3532 18.6803 14.7474 18.2742 14.2375 17.7625" stroke="#709CE6" stroke-width="2" stroke-linecap="round" stroke-linejoin="round"/>
  <path d="M16.7125 23.075L14.2375 25.55C13.1896 26.5051 11.814 27.0197 10.3965 26.9869C8.97905 26.9541 7.62874 26.3764 6.62617 25.3738C5.62361 24.3712 5.04589 23.0209 5.01307 21.6035C4.98026 20.186 5.49487 18.8104 6.44996 17.7625L9.98746 14.2375C10.4973 13.7258 11.1031 13.3197 11.7702 13.0427C12.4374 12.7656 13.1526 12.623 13.875 12.623C14.5973 12.623 15.3126 12.7656 15.9797 13.0427C16.6468 13.3197 17.2526 13.7258 17.7625 14.2375" stroke="#709CE6" stroke-width="2" stroke-linecap="round" stroke-linejoin="round"/>
</svg>