<svg xmlns="http://www.w3.org/2000/svg" version="1.1" xmlns:xlink="http://www.w3.org/1999/xlink" width="64" height="64" x="0" y="0" viewBox="0 0 512 512" style="enable-background:new 0 0 512 512" xml:space="preserve" class=""><g><path fill="#f06423" d="M459.862 212.8c-11.679 0-22.12-7.226-26.279-18.139a170.702 170.702 0 0 0-3.915-9.419c-4.819-10.689-2.585-23.23 5.706-31.521l.011-.011c10.989-10.989 10.989-28.805 0-39.793l-21.301-21.301a28.047 28.047 0 0 0-19.897-8.241h-40c-7.201 0-14.402 2.747-19.896 8.241l-.012.012a28.241 28.241 0 0 1-1.624 1.5c-10.525-4.33-17.456-14.558-17.456-25.988C315.2 52.598 302.602 40 287.062 40h-30.124c-1.686 0-3.334.157-4.938.441a28.287 28.287 0 0 0-4.938-.441h-30.124c-15.54 0-28.138 12.598-28.138 28.138 0 11.43-6.931 21.658-17.456 25.988a28.241 28.241 0 0 1-1.624-1.5l-.012-.012c-5.494-5.494-12.695-8.241-19.896-8.241h-40a28.053 28.053 0 0 0-19.897 8.241l-21.301 21.301c-10.989 10.989-10.989 28.805 0 39.793l.011.011c8.291 8.291 10.525 20.832 5.706 31.521a171.025 171.025 0 0 0-3.915 9.419c-4.159 10.913-14.6 18.139-26.279 18.139C28.598 212.8 16 225.398 16 240.938v30.124c0 15.54 12.598 28.138 28.138 28.138 11.679 0 22.12 7.226 26.279 18.139a170.702 170.702 0 0 0 3.915 9.419c4.819 10.689 2.585 23.23-5.706 31.521l-.011.011c-10.989 10.989-10.989 28.805 0 39.793l21.301 21.301c5.494 5.494 12.696 8.241 19.897 8.241h40c7.201 0 14.402-2.747 19.896-8.241l.012-.012a28.241 28.241 0 0 1 1.624-1.5c10.525 4.33 17.456 14.558 17.456 25.988 0 15.54 12.598 28.138 28.138 28.138h30.124c1.686 0 3.334-.157 4.938-.441 1.604.284 3.252.441 4.938.441h30.124c15.54 0 28.138-12.598 28.138-28.138 0-11.43 6.931-21.657 17.456-25.988.557.476 1.099.975 1.624 1.5l.012.012c5.494 5.494 12.695 8.241 19.896 8.241h40a28.053 28.053 0 0 0 19.897-8.241l21.301-21.301c10.989-10.989 10.989-28.805 0-39.793l-.011-.011c-8.291-8.291-10.525-20.832-5.706-31.521a171.025 171.025 0 0 0 3.915-9.419c4.159-10.913 14.6-18.139 26.279-18.139 15.54 0 28.138-12.598 28.138-28.138v-30.124c-.002-15.54-12.6-28.138-28.14-28.138z" data-original="#f06423" class=""></path><path fill="#faa019" d="M448 271.062v-30.124c0-15.54-12.598-28.138-28.138-28.138-11.679 0-22.12-7.226-26.279-18.139a170.702 170.702 0 0 0-3.915-9.419c-4.819-10.689-2.585-23.23 5.706-31.521l.011-.011c10.989-10.989 10.989-28.805 0-39.793l-21.301-21.301c-10.989-10.989-28.805-10.989-39.793 0l-.012.012c-8.291 8.291-20.832 10.525-31.521 5.706a172.595 172.595 0 0 0-9.419-3.915C282.426 90.26 275.2 79.819 275.2 68.14c0-15.542-12.598-28.14-28.138-28.14h-30.124c-15.54 0-28.138 12.598-28.138 28.138 0 11.679-7.226 22.12-18.139 26.279a170.702 170.702 0 0 0-9.419 3.915c-10.689 4.819-23.23 2.585-31.521-5.706l-.012-.012c-10.989-10.988-28.805-10.988-39.793 0l-21.301 21.301c-10.989 10.989-10.989 28.805 0 39.793l.011.011c8.291 8.291 10.525 20.832 5.706 31.521a171.806 171.806 0 0 0-3.915 9.419c-4.159 10.913-14.6 18.139-26.279 18.139-15.54.002-28.138 12.6-28.138 28.14v30.124c0 15.54 12.598 28.138 28.138 28.138 11.679 0 22.12 7.226 26.279 18.139a170.702 170.702 0 0 0 3.915 9.419c4.819 10.689 2.585 23.23-5.706 31.521l-.011.011c-10.989 10.989-10.989 28.805 0 39.793l21.301 21.301c10.989 10.989 28.805 10.989 39.793 0l.012-.012c8.291-8.291 20.832-10.525 31.521-5.706 3.093 1.394 6.233 2.7 9.419 3.915 10.913 4.159 18.139 14.6 18.139 26.279 0 15.54 12.598 28.138 28.138 28.138h30.124c15.54 0 28.138-12.598 28.138-28.138 0-11.679 7.226-22.12 18.139-26.279a170.702 170.702 0 0 0 9.419-3.915c10.689-4.819 23.23-2.585 31.521 5.706l.012.012c10.989 10.988 28.805 10.988 39.793 0l21.301-21.301c10.989-10.989 10.989-28.805 0-39.793l-.011-.011c-8.291-8.291-10.525-20.832-5.706-31.521a171.806 171.806 0 0 0 3.915-9.419c4.159-10.913 14.6-18.139 26.279-18.139 15.54 0 28.138-12.598 28.138-28.138z" data-original="#faa019" class=""></path><circle cx="232" cy="256" r="152" fill="#463c4b" data-original="#463c4b" class=""></circle><circle cx="232" cy="256" r="32" fill="#f06423" data-original="#f06423" class=""></circle><path fill="#23aae6" d="M232 320c-33.198 0-64.534-6.092-88.236-17.153C118.122 290.881 104 274.244 104 256h16c0 11.503 11.128 23.294 30.53 32.349C172.158 298.441 201.091 304 232 304s59.842-5.559 81.47-15.651C332.872 279.294 344 267.503 344 256h16c0 18.244-14.122 34.881-39.764 46.847C296.534 313.908 265.197 320 232 320z" data-original="#23aae6" class=""></path><path fill="#23aae6" d="M292.008 367.924A8 8 0 0 1 288 352.995c9.962-5.751 14.609-21.284 12.749-42.614-2.072-23.777-11.726-51.613-27.18-78.38-15.455-26.768-34.735-49.045-54.29-62.729-17.542-12.276-33.317-16.017-43.28-10.266a8 8 0 0 1-8-13.856c15.798-9.122 37.269-5.211 60.453 11.013 21.43 14.996 42.373 39.088 58.972 67.838 16.6 28.75 26.992 58.934 29.265 84.991 2.457 28.19-4.89 48.738-20.689 57.86a7.978 7.978 0 0 1-3.992 1.072z" data-original="#23aae6" class=""></path><path fill="#23aae6" d="M171.993 367.924a7.97 7.97 0 0 1-3.993-1.073c-15.799-9.122-23.147-29.67-20.689-57.86 2.272-26.057 12.665-56.241 29.263-84.991 16.599-28.75 37.542-52.842 58.973-67.838 23.186-16.225 44.655-20.134 60.453-11.013a8 8 0 0 1 2.928 10.928A8 8 0 0 1 288 159.005c-9.962-5.752-25.737-2.01-43.28 10.266-19.555 13.684-38.835 35.961-54.29 62.729-15.454 26.768-25.107 54.604-27.18 78.38-1.86 21.331 2.787 36.863 12.75 42.614a8 8 0 0 1-4.007 14.93z" data-original="#23aae6" class=""></path><path fill="#faa019" d="M200 256c0 8.837 7.163 16 16 16s16-7.163 16-16v-32c-17.673 0-32 14.327-32 32z" data-original="#faa019" class=""></path><path fill="#5ad7ff" d="M352 264a8 8 0 0 1-8-8c0-11.503-11.128-23.294-30.53-32.349C291.842 213.559 262.909 208 232 208s-59.842 5.559-81.47 15.651C131.128 232.706 120 244.497 120 256a8 8 0 0 1-16 0c0-18.244 14.122-34.881 39.764-46.847C167.466 198.092 198.802 192 232 192c33.197 0 64.534 6.092 88.236 17.153C345.878 221.119 360 237.756 360 256a8 8 0 0 1-8 8z" data-original="#5ad7ff" class=""></path><path fill="#5ad7ff" d="M277.299 371.671c-12.487 0-26.761-5.342-41.752-15.833-21.43-14.996-42.374-39.088-58.973-67.838s-26.991-58.934-29.263-84.991c-2.458-28.19 4.89-48.739 20.689-57.86a8 8 0 0 1 8 13.856c-9.962 5.751-14.609 21.284-12.75 42.614 2.073 23.777 11.726 51.613 27.18 78.38 15.455 26.768 34.735 49.045 54.29 62.729 17.543 12.276 33.319 16.019 43.28 10.266a7.999 7.999 0 0 1 10.928 2.928A8 8 0 0 1 296 366.85c-5.583 3.225-11.876 4.821-18.701 4.821z" data-original="#5ad7ff" class=""></path><path fill="#5ad7ff" d="M186.701 371.671c-6.826 0-13.116-1.596-18.701-4.82a8 8 0 0 1 8-13.856c9.963 5.753 25.736 2.011 43.28-10.266 19.555-13.684 38.834-35.961 54.289-62.729s25.108-54.604 27.181-78.38c1.86-21.33-2.787-36.863-12.749-42.614a8 8 0 0 1-2.928-10.928 7.998 7.998 0 0 1 10.928-2.928c15.8 9.122 23.146 29.67 20.689 57.86-2.272 26.057-12.665 56.241-29.265 84.991-16.599 28.75-37.542 52.842-58.972 67.838-14.99 10.489-29.265 15.832-41.752 15.832z" data-original="#5ad7ff" class=""></path></g></svg>